<svg width="45" height="44" viewBox="0 0 45 44" fill="none" xmlns="http://www.w3.org/2000/svg">
<path fill-rule="evenodd" clip-rule="evenodd" d="M24.2372 7.98624C30.3508 8.86092 35.0504 14.1188 35.0504 20.4742V28.1407C36.9406 28.2793 38.8081 28.4483 40.6504 28.647L40.264 32.2307C34.5496 31.6146 28.5788 31.2878 22.4346 31.2878C16.2902 31.2878 10.3195 31.6146 4.60517 32.2307L4.21875 28.647C6.06093 28.4483 7.92847 28.2793 9.81873 28.1407V20.4742C9.81873 14.1185 14.5187 8.86046 20.6327 7.98613V4.25391H24.2372V7.98624ZM31.4459 27.9152V20.4742C31.4459 15.4974 27.4113 11.4629 22.4346 11.4629C17.4578 11.4629 13.4233 15.4974 13.4233 20.4742V27.9152C16.3801 27.762 19.3871 27.6833 22.4346 27.6833C25.482 27.6833 28.4889 27.762 31.4459 27.9152ZM16.3535 35.5613C16.4192 37.6269 19.1024 40.2991 22.4337 40.2991C25.765 40.2991 28.4482 37.6269 28.514 35.5613C28.5266 35.1607 28.1582 34.8923 27.7572 34.8923H17.1103C16.7093 34.8923 16.3408 35.1607 16.3535 35.5613Z" fill="white"/>
</svg>
