<svg width="44" height="44" viewBox="0 0 44 44" fill="none" xmlns="http://www.w3.org/2000/svg">
<g clip-path="url(#clip0_211_3067)">
<path fill-rule="evenodd" clip-rule="evenodd" d="M25.9504 20.4737C25.9504 26.4459 21.109 31.2873 15.1368 31.2873C9.16466 31.2873 4.32327 26.4459 4.32327 20.4737C4.32327 14.5016 9.16466 9.66018 15.1368 9.66018C21.109 9.66018 25.9504 14.5016 25.9504 20.4737ZM26.6033 29.2158C23.969 32.6659 19.8128 34.8918 15.1368 34.8918C7.17394 34.8918 0.71875 28.4367 0.71875 20.4737C0.71875 12.5109 7.17394 6.05566 15.1368 6.05566C23.0998 6.05566 29.5549 12.5109 29.5549 20.4737C29.5549 22.4699 29.1492 24.3713 28.4159 26.1L43.9769 35.1355L42.1669 38.2527L26.6033 29.2158Z" fill="white"/>
</g>
<defs>
<clipPath id="clip0_211_3067">
<rect width="43.2542" height="43.2542" fill="white" transform="translate(0.71875 0.649414)"/>
</clipPath>
</defs>
</svg>
